{
	"asset":{
		"generator":"Khronos glTF Blender I/O v3.6.28",
		"version":"2.0"
	},
	"scene":0,
	"scenes":[
		{
			"name":"Scene",
			"nodes":[
				0
			]
		}
	],
	"nodes":[
		{
			"mesh":0,
			"name":"monogram-logo-mesh-path"
		}
	],
	"meshes":[
		{
			"name":"monogram-logo-mesh-path-data",
			"primitives":[
				{
					"attributes":{
						"POSITION":0,
						"NORMAL":1,
						"TEXCOORD_0":2
					},
					"indices":3
				}
			]
		}
	],
	"accessors":[
		{
			"bufferView":0,
			"componentType":5126,
			"count":3742,
			"max":[
				1.4127161502838135,
				3.0949859619140625,
				0.08518638461828232
			],
			"min":[
				-1.625903844833374,
				0.047672808170318604,
				-0.10932842642068863
			],
			"type":"VEC3"
		},
		{
			"bufferView":1,
			"componentType":5126,
			"count":3742,
			"type":"VEC3"
		},
		{
			"bufferView":2,
			"componentType":5126,
			"count":3742,
			"type":"VEC2"
		},
		{
			"bufferView":3,
			"componentType":5123,
			"count":19056,
			"type":"SCALAR"
		}
	],
	"bufferViews":[
		{
			"buffer":0,
			"byteLength":44904,
			"byteOffset":0,
			"target":34962
		},
		{
			"buffer":0,
			"byteLength":44904,
			"byteOffset":44904,
			"target":34962
		},
		{
			"buffer":0,
			"byteLength":29936,
			"byteOffset":89808,
			"target":34962
		},
		{
			"buffer":0,
			"byteLength":38112,
			"byteOffset":119744,
			"target":34963
		}
	],
	"buffers":[
		{
			"byteLength":157856,
			"uri":"data:application/octet-stream;base64,"
		}
	]
}
