<?xml version="1.0" encoding="UTF-8" standalone="no"?>
<svg
   xmlns:dc="http://purl.org/dc/elements/1.1/"
   xmlns:cc="http://creativecommons.org/ns#"
   xmlns:rdf="http://www.w3.org/1999/02/22-rdf-syntax-ns#"
   xmlns:svg="http://www.w3.org/2000/svg"
   xmlns="http://www.w3.org/2000/svg"
   xmlns:sodipodi="http://sodipodi.sourceforge.net/DTD/sodipodi-0.dtd"
   xmlns:inkscape="http://www.inkscape.org/namespaces/inkscape"
   inkscape:version="1.0 (4035a4f, 2020-05-01)"
   sodipodi:docname="monogram-logo2.svg"
   viewBox="0 0 101.33333 101.33333"
   height="101.33333"
   width="101.33333"
   xml:space="preserve"
   id="svg2446"
   version="1.1"><metadata
     id="metadata2452"><rdf:RDF><cc:Work
         rdf:about=""><dc:format>image/svg+xml</dc:format><dc:type
           rdf:resource="http://purl.org/dc/dcmitype/StillImage" /><dc:title></dc:title></cc:Work></rdf:RDF></metadata><defs
     id="defs2450"><clipPath
       id="clipPath2464"
       clipPathUnits="userSpaceOnUse"><path
         id="path2462"
         d="M 140.738,143.051 H 626.761 V 628.52 H 140.738 Z" /></clipPath><clipPath
       id="clipPath2476"
       clipPathUnits="userSpaceOnUse"><path
         id="path2474"
         d="m 8.75,0.351563 h 750 V 759.26156 h -750 z" /></clipPath></defs><sodipodi:namedview
     inkscape:current-layer="g2456"
     inkscape:window-maximized="0"
     inkscape:window-y="146"
     inkscape:window-x="134"
     inkscape:cy="36.119972"
     inkscape:cx="186.70844"
     inkscape:zoom="0.85536775"
     showgrid="false"
     id="namedview2448"
     inkscape:window-height="677"
     inkscape:window-width="1352"
     inkscape:pageshadow="2"
     inkscape:pageopacity="0"
     guidetolerance="10"
     gridtolerance="10"
     objecttolerance="10"
     borderopacity="1"
     bordercolor="#666666"
     pagecolor="#ffffff" /><g
     transform="matrix(1.3333333,0,0,-1.3333333,0,101.33333)"
     inkscape:label="ink_ext_XXXXXX"
     inkscape:groupmode="layer"
     id="g2454"><g
       transform="scale(0.1)"
       id="g2456"><g
         style="fill:#ffffff"
         transform="translate(1693.259,-980.79482)"
         id="g2458"><g
           style="fill:#ffffff"
           transform="matrix(0.97768844,-0.82037799,0.82037799,0.97768844,-2016.3356,1296.6977)"
           clip-path="url(#clipPath2464)"
           id="g2460"><path
             id="path2466"
             style="fill:#ffffff;fill-opacity:1;fill-rule:nonzero;stroke:none"
             d="M 375.66,143.051 V 628.52 c -15.148,-0.508 -29.18,-2.149 -43.199,-5.399 C 270.859,610.16 218.52,573.98 183.949,524.262 l 37.262,-21.602 c 27.027,36.75 65.859,64.289 111.25,76.211 V 192.77 C 246.559,215.43 183.949,293.199 183.949,385.512 h -43.211 c 0,-116.102 82.071,-213.793 191.723,-237.071 14.019,-3.211 28.051,-4.851 43.199,-5.39 z m 16.18,0 c 14.57,0.539 29.18,2.179 43.199,5.39 v 430.43 c 18.91,-4.891 36.762,-12.461 52.973,-22.191 V 166.289 c 15.078,6.992 29.687,16.211 43.199,25.902 v 328.86 c 32.379,-35.621 52.34,-83.16 52.34,-135.539 0,-32.891 -8.082,-64.774 -22.653,-92.313 l 37.192,-21.597 c 18.39,33.988 28.672,72.886 28.672,113.91 0,116.636 -82.071,214.367 -191.723,237.609 -14.019,3.25 -28.629,4.891 -43.199,5.399 z" /></g></g></g></g></svg>
