<?xml version="1.0" standalone="no"?>
<!DOCTYPE svg PUBLIC "-//W3C//DTD SVG 20010904//EN"
 "http://www.w3.org/TR/2001/REC-SVG-20010904/DTD/svg10.dtd">
<svg version="1.0" xmlns="http://www.w3.org/2000/svg"
 width="700.000000pt" height="700.000000pt" viewBox="0 0 700.000000 700.000000"
 preserveAspectRatio="xMidYMid meet">
<metadata>
Created by potrace 1.14, written by Peter Selinger 2001-2017
</metadata>
<g transform="translate(0.000000,700.000000) scale(0.100000,-0.100000)"
fill="#000000" stroke="none">
<path d="M3115 6329 c-146 -17 -317 -48 -437 -80 l-36 -9 23 -63 c13 -34 52
-141 87 -238 l62 -176 84 19 c45 10 97 20 115 22 18 2 59 7 92 11 33 4 69 9
80 11 24 5 357 5 400 0 81 -9 162 -19 180 -22 11 -2 46 -9 77 -14 107 -20 313
-81 428 -127 63 -25 117 -47 119 -49 3 -3 -70 -96 -89 -114 -3 -3 -50 -59
-105 -125 -55 -66 -102 -122 -105 -125 -3 -3 -39 -45 -80 -95 -41 -49 -79 -95
-85 -101 -5 -6 -28 -33 -50 -60 -22 -26 -56 -67 -75 -89 -19 -23 -53 -63 -75
-90 -22 -27 -44 -53 -50 -59 -5 -6 -66 -78 -135 -161 -69 -82 -152 -182 -185
-220 -33 -39 -76 -90 -95 -114 -19 -24 -40 -48 -45 -55 -11 -11 -254 -301
-286 -341 -25 -30 -87 -104 -143 -169 -27 -31 -58 -69 -70 -84 -11 -15 -23
-29 -26 -32 -4 -3 -57 -66 -119 -140 -62 -74 -122 -146 -134 -160 -12 -14 -59
-70 -105 -125 -109 -129 -136 -162 -277 -330 -65 -77 -183 -219 -264 -315 -80
-96 -154 -184 -164 -195 -10 -11 -48 -56 -85 -101 l-67 -82 -50 77 c-114 176
-202 361 -265 556 -81 253 -113 462 -112 735 0 140 3 181 23 320 8 60 11 77
23 143 59 312 222 665 439 950 32 43 55 82 51 86 -5 4 -38 32 -74 62 -36 30
-67 56 -70 59 -3 3 -45 39 -95 80 -49 41 -99 83 -109 93 -11 9 -23 17 -27 17
-18 0 -167 -199 -251 -336 -219 -356 -359 -770 -406 -1204 -14 -133 -7 -566
12 -665 2 -11 7 -42 11 -70 5 -27 9 -52 10 -55 1 -3 5 -25 9 -50 13 -71 13
-72 31 -140 123 -480 368 -925 700 -1270 34 -36 85 -87 113 -113 l50 -49 212
254 c116 139 231 276 255 303 24 28 54 64 66 80 13 17 26 32 29 35 3 3 52 61
110 130 57 69 107 127 110 130 3 3 15 17 26 32 12 15 41 51 66 80 51 59 311
368 373 443 22 27 103 124 180 215 77 92 205 244 285 340 80 95 197 234 260
309 63 75 133 159 155 185 22 27 45 54 50 60 6 6 30 36 55 66 25 30 47 57 50
60 4 3 75 88 160 190 85 102 157 187 160 190 3 3 62 73 130 155 68 83 127 152
130 155 5 4 80 94 175 209 11 14 36 43 55 65 31 36 157 187 200 240 8 10 20
23 25 30 6 6 69 81 140 166 72 85 136 161 143 168 36 39 64 84 56 90 -341 285
-904 522 -1369 577 -27 4 -61 9 -75 12 -42 9 -510 11 -585 2z"/>
<path d="M5080 5344 c-118 -142 -220 -262 -225 -268 -6 -6 -44 -51 -85 -101
-41 -49 -85 -101 -96 -115 -12 -14 -111 -131 -219 -260 -108 -129 -204 -244
-213 -255 -10 -11 -101 -119 -202 -240 -102 -121 -192 -229 -202 -240 -9 -11
-65 -78 -124 -150 -59 -71 -111 -132 -114 -135 -6 -5 -155 -183 -180 -214 -8
-11 -29 -35 -46 -55 -36 -42 -206 -246 -319 -381 -44 -52 -82 -97 -85 -100 -3
-3 -35 -41 -70 -85 -36 -44 -68 -82 -71 -85 -3 -3 -30 -34 -60 -70 -58 -70
-88 -106 -104 -124 -5 -6 -32 -38 -60 -71 -27 -33 -60 -71 -71 -85 -12 -14
-133 -158 -269 -320 -135 -162 -299 -357 -363 -434 -64 -76 -128 -152 -142
-169 -14 -17 -46 -56 -72 -86 -26 -31 -48 -59 -48 -63 0 -4 15 -17 32 -29 18
-13 35 -26 38 -30 9 -12 233 -155 294 -188 48 -26 61 -30 71 -19 7 7 57 67
111 133 54 66 101 122 104 125 3 3 28 32 55 65 27 33 77 92 110 131 33 39 78
92 100 119 22 27 45 53 50 59 6 6 66 79 135 161 69 83 134 161 146 175 30 35
293 348 378 450 39 47 73 87 76 90 3 3 73 86 155 185 82 99 152 182 155 185 5
5 177 211 225 269 11 13 47 56 80 95 33 39 83 98 110 131 27 33 52 62 55 65 3
3 27 32 55 65 27 33 52 62 55 65 3 3 25 30 50 60 25 30 47 57 50 60 3 3 60 70
127 150 117 141 308 369 480 574 46 55 92 110 101 121 158 188 276 325 281
325 3 0 36 -49 73 -109 76 -123 175 -324 209 -422 l23 -65 -155 -183 c-85
-101 -167 -200 -184 -221 -28 -35 -197 -237 -285 -340 -22 -25 -88 -103 -147
-175 -60 -71 -118 -141 -130 -155 -24 -29 -127 -151 -193 -230 -25 -30 -70
-84 -100 -120 -31 -36 -126 -149 -213 -252 -86 -104 -228 -272 -314 -375 -87
-104 -207 -246 -266 -318 -60 -71 -128 -152 -152 -180 -67 -80 -159 -189 -289
-345 -66 -80 -123 -147 -126 -150 -3 -3 -39 -45 -80 -95 -41 -49 -79 -95 -85
-101 -5 -6 -26 -30 -45 -54 -19 -24 -67 -82 -107 -128 -40 -47 -71 -88 -68
-92 7 -12 192 -49 330 -66 22 -3 45 -7 52 -9 6 -2 54 -7 105 -10 l93 -6 130
157 c72 86 135 162 140 168 6 6 36 43 68 81 33 39 66 79 76 90 9 11 72 88 141
170 69 83 127 152 130 155 3 3 76 88 161 190 84 102 159 190 164 196 6 6 28
32 50 59 97 117 259 310 265 315 3 3 15 17 26 32 12 15 41 51 66 80 40 46 632
752 730 869 20 24 50 60 66 79 16 19 82 97 145 172 64 76 118 135 120 130 6
-10 1 -233 -7 -312 -4 -36 -14 -103 -22 -150 -9 -47 -18 -101 -21 -120 -7 -45
-67 -250 -94 -320 -120 -314 -317 -620 -543 -845 -142 -141 -271 -243 -435
-345 -93 -57 -296 -160 -317 -160 -17 0 -17 -2 -4 -32 5 -13 40 -111 79 -218
38 -107 72 -203 76 -213 10 -23 40 -13 230 80 132 64 368 212 464 290 275 224
499 472 667 743 104 166 167 294 254 515 31 79 69 197 85 265 1 8 10 42 18 75
18 68 46 214 52 272 3 21 8 70 12 108 10 91 10 470 0 560 -5 39 -12 97 -17
130 -5 33 -12 78 -16 100 -3 22 -14 76 -24 120 -122 524 -374 985 -745 1363
-66 67 -125 122 -130 122 -6 0 -107 -115 -225 -256z"/>
</g>
</svg>
